<svg width="98" height="40" viewBox="0 0 98 40" fill="none" xmlns="http://www.w3.org/2000/svg">
<path d="M13.0297 0.00907428V16.2153H6.47401V0.00907428H0V38.9186H6.47401V22.7123H12.9934V38.9276H19.5492V0.0181232H13.0297V0.00907428ZM39.2163 0.0181232V30.8652C39.2163 31.302 39.0422 31.7209 38.7323 32.0297C38.4224 32.3386 38.0021 32.5121 37.5638 32.5121H34.2678C33.8295 32.5121 33.4092 32.3386 33.0992 32.0297C32.7893 31.7209 32.6152 31.302 32.6152 30.8652V0.00907428H26.1594V32.5121C26.157 33.366 26.324 34.2119 26.6507 35.0012C26.9775 35.7905 27.4577 36.5077 28.0635 37.1115C28.6694 37.7153 29.389 38.1937 30.1811 38.5194C30.9731 38.845 31.822 39.0115 32.6788 39.0091H39.1619C40.0187 39.0115 40.8675 38.845 41.6596 38.5194C42.4516 38.1937 43.1713 37.7153 43.7771 37.1115C44.383 36.5077 44.8631 35.7905 45.1899 35.0012C45.5167 34.2119 45.6837 33.366 45.6813 32.5121V0.00907428H39.2163V0.0181232ZM98 6.49701V0.00907428H78.4327V38.9186H98V32.4307H84.943V22.7123H91.4624V16.2153H84.943V6.49701H98ZM71.8497 9.79074V6.49701C71.8521 5.64314 71.6851 4.79723 71.3583 4.0079C71.0316 3.21857 70.5514 2.5014 69.9456 1.89762C69.3397 1.29385 68.6201 0.815372 67.828 0.489714C67.036 0.164056 66.1871 -0.0023631 65.3303 2.53489e-05H58.7837C57.9268 -0.0023631 57.078 0.164056 56.286 0.489714C55.4939 0.815372 54.7743 1.29385 54.1684 1.89762C53.5625 2.5014 53.0824 3.21857 52.7556 4.0079C52.4288 4.79723 52.2619 5.64314 52.2642 6.49701V32.494C52.2619 33.3479 52.4288 34.1938 52.7556 34.9831C53.0824 35.7724 53.5625 36.4896 54.1684 37.0934C54.7743 37.6972 55.4939 38.1756 56.286 38.5013C57.078 38.8269 57.9268 38.9934 58.7837 38.991H65.3031C66.1622 38.997 67.0139 38.8332 67.8091 38.5091C68.6043 38.1851 69.3272 37.7072 69.936 37.1031C70.5447 36.4989 71.0273 35.7805 71.3558 34.9894C71.6843 34.1983 71.8521 33.3502 71.8497 32.494V16.2787H62.0615V22.7847H65.3575V30.8562C65.3564 31.074 65.3119 31.2894 65.2266 31.4899C65.1413 31.6905 65.0169 31.8722 64.8607 32.0245C64.7045 32.1768 64.5195 32.2968 64.3164 32.3774C64.1134 32.4579 63.8963 32.4976 63.6778 32.494H60.418C59.9798 32.494 59.5594 32.3205 59.2495 32.0116C58.9396 31.7028 58.7655 31.2839 58.7655 30.8471V8.14388C58.7655 7.7071 58.9396 7.28821 59.2495 6.97937C59.5594 6.67052 59.9798 6.49701 60.418 6.49701H63.6778C64.116 6.49701 64.5364 6.67052 64.8463 6.97937C65.1562 7.28821 65.3303 7.7071 65.3303 8.14388V9.79074H71.8497Z" fill="white"/>
</svg>
